<svg xmlns="http://www.w3.org/2000/svg" width="127" height="31" viewBox="0 0 127 31" fill="none">
  <path d="M1 30L7.15123 25.9896C9.49079 24.4643 12.4278 24.1775 15.0182 25.2215L16.5248 25.8287C18.5757 26.6552 20.8671 26.6552 22.918 25.8287L25.9273 24.6159C27.6355 23.9274 29.0758 22.7059 30.0339 21.1331L36.7999 10.0262C37.2263 9.32622 37.7511 8.69116 38.3583 8.14053L40.5027 6.19579C43.7556 3.24574 48.7143 3.23909 51.9751 6.1804L53.5434 7.59504C54.546 8.49933 55.7484 9.15339 57.0522 9.50372L61.5393 10.7093C63.0856 11.1248 64.4842 11.966 65.5759 13.1372L67.1282 14.8027C70.1804 18.0772 75.2778 18.3457 78.657 15.4099V15.4099C80.5095 13.8006 82.9786 13.0922 85.4025 13.4748L86.4853 13.6457C89.4425 14.1124 92.4285 12.9987 94.3577 10.7093L95.4003 9.47205C97.7139 6.72658 101.496 5.71861 104.869 6.94855L105.789 7.28405C107.293 7.83221 108.919 7.94759 110.485 7.61708L115.539 6.55019C116.458 6.35626 117.338 6.01237 118.145 5.53233L125.763 1" stroke="#2C7BE5" stroke-width="2" stroke-linecap="round" stroke-linejoin="round"/>
  <path d="M7.15123 25.9896L1 30H125.763V1L118.145 5.53233C117.338 6.01237 116.458 6.35626 115.539 6.55019L110.485 7.61708C108.919 7.94759 107.293 7.83221 105.789 7.28405L104.869 6.94855C101.496 5.71861 97.7139 6.72658 95.4003 9.47205L94.3577 10.7093C92.4285 12.9987 89.4425 14.1124 86.4853 13.6457L85.4025 13.4748C82.9786 13.0922 80.5095 13.8006 78.657 15.4099C75.2778 18.3457 70.1804 18.0772 67.1282 14.8027L65.5759 13.1372C64.4842 11.966 63.0856 11.1248 61.5393 10.7093L57.0522 9.50372C55.7484 9.15339 54.546 8.49933 53.5434 7.59504L51.9751 6.1804C48.7143 3.23909 43.7556 3.24574 40.5027 6.19579L38.3583 8.14053C37.7511 8.69116 37.2263 9.32622 36.7999 10.0262L30.0339 21.1331C29.0758 22.7059 27.6355 23.9274 25.9273 24.6159L22.918 25.8287C20.8671 26.6552 18.5757 26.6552 16.5248 25.8287L15.0182 25.2215C12.4278 24.1775 9.49079 24.4643 7.15123 25.9896Z" fill="url(#paint0_linear_23_2572)"/>
  <defs>
    <linearGradient id="paint0_linear_23_2572" x1="63.3815" y1="1" x2="63.3815" y2="30" gradientUnits="userSpaceOnUse">
      <stop stop-color="#2C7BE5" stop-opacity="0.6"/>
      <stop offset="1" stop-color="#2C7BE5" stop-opacity="0"/>
    </linearGradient>
  </defs>
</svg>