<svg width="252" height="56" viewBox="0 0 252 56" fill="none" xmlns="http://www.w3.org/2000/svg">
<path d="M64.4062 37V15.1818H70.3295V23.7045H78.1705V15.1818H84.0938V37H78.1705V28.4773H70.3295V37H64.4062ZM94.8324 37.2983C93.0852 37.2983 91.5795 36.9645 90.3153 36.2969C89.0582 35.6222 88.0888 34.6562 87.407 33.3991C86.7322 32.1349 86.3949 30.6222 86.3949 28.8608C86.3949 27.1705 86.7358 25.6932 87.4176 24.429C88.0994 23.1648 89.0618 22.1811 90.3047 21.478C91.5476 20.7749 93.0142 20.4233 94.7045 20.4233C95.9403 20.4233 97.0589 20.6151 98.0604 20.9986C99.0618 21.3821 99.9176 21.9396 100.628 22.6712C101.338 23.3956 101.885 24.2763 102.268 25.3132C102.652 26.3501 102.844 27.5185 102.844 28.8182V30.1818H88.2273V26.9432H97.4318C97.4247 26.4744 97.304 26.0625 97.0696 25.7074C96.8423 25.3452 96.5334 25.0646 96.1428 24.8658C95.7592 24.6598 95.3224 24.5568 94.8324 24.5568C94.3565 24.5568 93.9197 24.6598 93.522 24.8658C93.1243 25.0646 92.8047 25.3416 92.5632 25.6967C92.3288 26.0518 92.2045 26.4673 92.1903 26.9432V30.4375C92.1903 30.9631 92.3004 31.4318 92.5206 31.8438C92.7408 32.2557 93.0568 32.5788 93.4688 32.8132C93.8807 33.0476 94.3778 33.1648 94.9602 33.1648C95.3651 33.1648 95.7344 33.108 96.0682 32.9943C96.4091 32.8807 96.7003 32.7173 96.9418 32.5043C97.1832 32.2841 97.3608 32.0213 97.4744 31.7159H102.844C102.659 32.8523 102.222 33.8395 101.533 34.6776C100.844 35.5085 99.9318 36.1548 98.7955 36.6165C97.6662 37.071 96.3452 37.2983 94.8324 37.2983ZM109.803 37.2557C108.759 37.2557 107.836 37.0852 107.033 36.7443C106.238 36.3963 105.613 35.8707 105.158 35.1676C104.704 34.4645 104.476 33.5696 104.476 32.483C104.476 31.5881 104.629 30.8246 104.934 30.1925C105.24 29.5533 105.666 29.0312 106.213 28.6264C106.76 28.2216 107.395 27.9126 108.12 27.6996C108.851 27.4865 109.64 27.348 110.485 27.2841C111.401 27.2131 112.136 27.1278 112.69 27.0284C113.251 26.9219 113.656 26.7763 113.905 26.5916C114.153 26.3999 114.278 26.1477 114.278 25.8352V25.7926C114.278 25.3665 114.114 25.0398 113.787 24.8125C113.461 24.5852 113.042 24.4716 112.53 24.4716C111.969 24.4716 111.511 24.5959 111.156 24.8445C110.808 25.0859 110.599 25.4588 110.528 25.9631H105.116C105.187 24.9687 105.503 24.0526 106.064 23.2145C106.632 22.3693 107.459 21.6946 108.546 21.1903C109.633 20.679 110.989 20.4233 112.616 20.4233C113.787 20.4233 114.839 20.5618 115.769 20.8388C116.699 21.1087 117.491 21.4886 118.145 21.9787C118.798 22.4616 119.295 23.0298 119.636 23.6832C119.984 24.3295 120.158 25.0327 120.158 25.7926V37H114.661V34.6989H114.533C114.206 35.3097 113.809 35.8033 113.34 36.1797C112.878 36.5561 112.349 36.8295 111.753 37C111.163 37.1705 110.513 37.2557 109.803 37.2557ZM111.721 33.5483C112.168 33.5483 112.587 33.456 112.978 33.2713C113.376 33.0866 113.699 32.8203 113.947 32.4723C114.196 32.1243 114.32 31.7017 114.32 31.2045V29.8409C114.164 29.9048 113.997 29.9652 113.819 30.022C113.649 30.0788 113.464 30.1321 113.265 30.1818C113.074 30.2315 112.868 30.2777 112.648 30.3203C112.434 30.3629 112.211 30.402 111.976 30.4375C111.522 30.5085 111.149 30.6257 110.858 30.7891C110.574 30.9453 110.361 31.1406 110.219 31.375C110.084 31.6023 110.016 31.858 110.016 32.142C110.016 32.5966 110.176 32.9446 110.496 33.1861C110.815 33.4276 111.224 33.5483 111.721 33.5483ZM128.849 15.1818V37H122.968V15.1818H128.849ZM141.604 20.6364V24.8977H130.822V20.6364H141.604ZM132.91 16.7159H138.791V31.7372C138.791 31.9645 138.83 32.1562 138.908 32.3125C138.986 32.4616 139.107 32.5753 139.27 32.6534C139.434 32.7244 139.643 32.7599 139.899 32.7599C140.077 32.7599 140.282 32.7386 140.517 32.696C140.758 32.6534 140.936 32.6179 141.05 32.5895L141.902 36.723C141.639 36.8011 141.263 36.897 140.773 37.0107C140.29 37.1243 139.714 37.1989 139.047 37.2344C137.697 37.3054 136.564 37.1669 135.648 36.8189C134.732 36.4638 134.043 35.9062 133.581 35.1463C133.12 34.3864 132.896 33.4347 132.91 32.2912V16.7159ZM150.235 27.7955V37H144.355V15.1818H150.022V23.7472H150.193C150.562 22.7031 151.176 21.8899 152.036 21.3075C152.895 20.718 153.929 20.4233 155.136 20.4233C156.294 20.4233 157.299 20.6861 158.151 21.2116C159.01 21.7372 159.674 22.4616 160.143 23.3849C160.619 24.3082 160.853 25.3665 160.846 26.5597V37H154.966V27.7955C154.973 26.9858 154.77 26.3501 154.358 25.8885C153.953 25.4268 153.375 25.196 152.622 25.196C152.146 25.196 151.727 25.3026 151.365 25.5156C151.01 25.7216 150.733 26.0199 150.534 26.4105C150.342 26.794 150.243 27.2557 150.235 27.7955ZM190.01 23.3636H184.001C183.959 22.8665 183.845 22.4155 183.661 22.0107C183.483 21.6058 183.234 21.2578 182.915 20.9666C182.602 20.6683 182.222 20.4411 181.775 20.2848C181.327 20.1214 180.82 20.0398 180.251 20.0398C179.257 20.0398 178.415 20.2812 177.727 20.7642C177.045 21.2472 176.526 21.9396 176.171 22.8416C175.823 23.7436 175.649 24.8267 175.649 26.0909C175.649 27.4261 175.827 28.5447 176.182 29.4467C176.544 30.3416 177.066 31.0163 177.748 31.4709C178.43 31.9183 179.25 32.142 180.209 32.142C180.756 32.142 181.246 32.0746 181.679 31.9396C182.112 31.7976 182.489 31.5952 182.808 31.3324C183.128 31.0696 183.387 30.7536 183.586 30.3842C183.792 30.0078 183.93 29.5852 184.001 29.1165L190.01 29.1591C189.939 30.0824 189.68 31.0234 189.232 31.9822C188.785 32.9339 188.149 33.8146 187.325 34.6243C186.509 35.4268 185.496 36.0732 184.289 36.5632C183.082 37.0533 181.679 37.2983 180.081 37.2983C178.078 37.2983 176.281 36.8686 174.69 36.0092C173.107 35.1499 171.853 33.8857 170.93 32.2166C170.013 30.5476 169.555 28.5057 169.555 26.0909C169.555 23.6619 170.024 21.6165 170.962 19.9545C171.899 18.2855 173.163 17.0249 174.754 16.1726C176.345 15.3132 178.121 14.8835 180.081 14.8835C181.459 14.8835 182.727 15.0717 183.884 15.4482C185.042 15.8246 186.058 16.375 186.931 17.0994C187.805 17.8168 188.508 18.701 189.04 19.7521C189.573 20.8033 189.896 22.0071 190.01 23.3636ZM197.342 37.2557C196.298 37.2557 195.375 37.0852 194.572 36.7443C193.777 36.3963 193.152 35.8707 192.697 35.1676C192.243 34.4645 192.015 33.5696 192.015 32.483C192.015 31.5881 192.168 30.8246 192.474 30.1925C192.779 29.5533 193.205 29.0312 193.752 28.6264C194.299 28.2216 194.934 27.9126 195.659 27.6996C196.39 27.4865 197.179 27.348 198.024 27.2841C198.94 27.2131 199.675 27.1278 200.229 27.0284C200.79 26.9219 201.195 26.7763 201.444 26.5916C201.692 26.3999 201.817 26.1477 201.817 25.8352V25.7926C201.817 25.3665 201.653 25.0398 201.327 24.8125C201 24.5852 200.581 24.4716 200.069 24.4716C199.508 24.4716 199.05 24.5959 198.695 24.8445C198.347 25.0859 198.138 25.4588 198.067 25.9631H192.655C192.726 24.9687 193.042 24.0526 193.603 23.2145C194.171 22.3693 194.998 21.6946 196.085 21.1903C197.172 20.679 198.528 20.4233 200.155 20.4233C201.327 20.4233 202.378 20.5618 203.308 20.8388C204.238 21.1087 205.03 21.4886 205.684 21.9787C206.337 22.4616 206.834 23.0298 207.175 23.6832C207.523 24.3295 207.697 25.0327 207.697 25.7926V37H202.2V34.6989H202.072C201.746 35.3097 201.348 35.8033 200.879 36.1797C200.417 36.5561 199.888 36.8295 199.292 37C198.702 37.1705 198.052 37.2557 197.342 37.2557ZM199.26 33.5483C199.707 33.5483 200.126 33.456 200.517 33.2713C200.915 33.0866 201.238 32.8203 201.486 32.4723C201.735 32.1243 201.859 31.7017 201.859 31.2045V29.8409C201.703 29.9048 201.536 29.9652 201.358 30.022C201.188 30.0788 201.003 30.1321 200.805 30.1818C200.613 30.2315 200.407 30.2777 200.187 30.3203C199.974 30.3629 199.75 30.402 199.515 30.4375C199.061 30.5085 198.688 30.6257 198.397 30.7891C198.113 30.9453 197.9 31.1406 197.758 31.375C197.623 31.6023 197.555 31.858 197.555 32.142C197.555 32.5966 197.715 32.9446 198.035 33.1861C198.354 33.4276 198.763 33.5483 199.26 33.5483ZM210.507 37V20.6364H216.217V23.7472H216.388C216.686 22.5966 217.158 21.755 217.805 21.2223C218.458 20.6896 219.222 20.4233 220.095 20.4233C220.351 20.4233 220.603 20.4446 220.852 20.4872C221.107 20.5227 221.352 20.576 221.587 20.647V25.6648C221.295 25.5653 220.937 25.4908 220.511 25.4411C220.085 25.3913 219.719 25.3665 219.413 25.3665C218.838 25.3665 218.32 25.4979 217.858 25.7607C217.403 26.0163 217.045 26.3786 216.782 26.8473C216.519 27.3089 216.388 27.8523 216.388 28.4773V37H210.507ZM230.418 37.2983C228.671 37.2983 227.165 36.9645 225.901 36.2969C224.644 35.6222 223.675 34.6562 222.993 33.3991C222.318 32.1349 221.981 30.6222 221.981 28.8608C221.981 27.1705 222.322 25.6932 223.004 24.429C223.685 23.1648 224.648 22.1811 225.891 21.478C227.134 20.7749 228.6 20.4233 230.29 20.4233C231.526 20.4233 232.645 20.6151 233.646 20.9986C234.648 21.3821 235.504 21.9396 236.214 22.6712C236.924 23.3956 237.471 24.2763 237.854 25.3132C238.238 26.3501 238.43 27.5185 238.43 28.8182V30.1818H223.813V26.9432H233.018C233.011 26.4744 232.89 26.0625 232.656 25.7074C232.428 25.3452 232.119 25.0646 231.729 24.8658C231.345 24.6598 230.908 24.5568 230.418 24.5568C229.942 24.5568 229.506 24.6598 229.108 24.8658C228.71 25.0646 228.391 25.3416 228.149 25.6967C227.915 26.0518 227.79 26.4673 227.776 26.9432V30.4375C227.776 30.9631 227.886 31.4318 228.107 31.8438C228.327 32.2557 228.643 32.5788 229.055 32.8132C229.467 33.0476 229.964 33.1648 230.546 33.1648C230.951 33.1648 231.32 33.108 231.654 32.9943C231.995 32.8807 232.286 32.7173 232.528 32.5043C232.769 32.2841 232.947 32.0213 233.06 31.7159H238.43C238.245 32.8523 237.808 33.8395 237.119 34.6776C236.43 35.5085 235.518 36.1548 234.381 36.6165C233.252 37.071 231.931 37.2983 230.418 37.2983Z" fill="#0064AF"/>
<path d="M22.0542 42.5573V55.1305L44.1042 42.3944V29.8227L22.0542 42.5573Z" fill="#3FAAD7"/>
<path d="M31.9247 18.2742L42.8045 11.9875L22.0542 0V12.5729L31.9247 18.2742Z" fill="#0064AF"/>
<path d="M13.4845 22.0282V34.6052L22.0538 39.5538V26.9824L13.4845 22.0282Z" fill="#A1D9DF"/>
<path d="M44.1042 14.2411L22.0542 26.9825V39.5539L44.1042 26.8177V14.2411Z" fill="#3FAAD7"/>
<path d="M1.3131 11.9802L12.1277 18.3035L22.0537 12.5729V0L1.3131 11.9802Z" fill="#3FAAD7"/>
<path d="M10.8835 36.1077V20.52L0 14.2354V42.3939L22.0537 55.1301V42.5568L10.8835 36.1077Z" fill="#A1D9DF"/>
</svg>
